<svg width="14" height="14" viewBox="0 0 14 14" fill="none" xmlns="http://www.w3.org/2000/svg">
<path d="M13.8238 12.0292L10.4622 8.56642C10.2211 8.31799 9.91985 8.21852 9.78933 8.34554C9.65835 8.47165 9.35686 8.37244 9.11581 8.124L9.06773 8.07429C10.5723 6.10119 10.4263 3.27616 8.61953 1.47464C6.64766 -0.491545 3.45052 -0.491545 1.4789 1.47464C-0.492967 3.44082 -0.492967 6.62829 1.4789 8.59447C3.3164 10.4269 6.21656 10.5497 8.19941 8.967L8.22052 8.98895C8.46112 9.23738 8.55075 9.54093 8.41936 9.66724C8.28859 9.7936 8.37756 10.0973 8.61887 10.3453L11.9787 13.8095C12.2197 14.0573 12.6169 14.0646 12.8663 13.8241L13.8092 12.9144C14.0577 12.6744 14.0644 12.2786 13.8238 12.0292ZM7.50995 7.48801C6.15299 8.84126 3.94482 8.84126 2.58807 7.48846C1.23111 6.13542 1.23132 3.93336 2.58807 2.58056C3.94482 1.22752 6.15299 1.22773 7.50949 2.58077C8.86665 3.93361 8.86665 6.13521 7.50995 7.48801Z" fill="black" fill-opacity="0.8"/>
</svg>
