<svg width="14" height="14" fill="none" xmlns="http://www.w3.org/2000/svg"><path d="M13.824 12.03l-3.362-3.464c-.24-.248-.542-.347-.673-.22-.13.126-.432.026-.673-.222l-.048-.05a5.02 5.02 0 00-.448-6.6 5.06 5.06 0 00-7.141 0 5.024 5.024 0 000 7.12 5.059 5.059 0 006.72.373l.022.022c.24.248.33.552.198.678-.13.127-.041.43.2.678l3.36 3.464a.63.63 0 00.887.015l.943-.91a.626.626 0 00.015-.885zM7.51 7.487a3.491 3.491 0 01-4.922 0 3.468 3.468 0 010-4.907 3.49 3.49 0 014.921 0 3.467 3.467 0 010 4.907z" fill="#000" fill-opacity=".8"/></svg>