<svg width="30" height="30" fill="none" xmlns="http://www.w3.org/2000/svg"><g clip-path="url(#clip0)"><path d="M29.58 25.777l-7.183-7.42c-.515-.533-1.159-.746-1.437-.474-.28.27-.924.058-1.44-.474l-.102-.107C22.633 13.074 22.32 7.02 18.46 3.16c-4.213-4.213-11.044-4.213-15.257 0-4.213 4.213-4.213 11.043 0 15.257 3.926 3.926 10.123 4.19 14.36.798l.045.047c.514.532.705 1.183.424 1.453-.279.271-.089.922.427 1.454l7.178 7.423c.516.53 1.364.547 1.897.031l2.015-1.95c.53-.514.545-1.362.031-1.896zm-13.49-9.731c-2.9 2.9-7.618 2.9-10.517 0-2.9-2.899-2.9-7.617 0-10.516 2.899-2.9 7.617-2.9 10.515 0 2.9 2.9 2.9 7.617.001 10.516z" fill="#000" fill-opacity=".25"/></g><defs><clipPath id="clip0"><path fill="#fff" d="M0 0h30v30H0z"/></clipPath></defs></svg>